<?xml version="1.0" encoding="UTF-8" standalone="no"?>
<!-- Created with Inkscape (http://www.inkscape.org/) -->

<svg
   width="800mm"
   height="365mm"
   viewBox="0 0 800 365"
   version="1.1"
   id="svg1"
   inkscape:version="1.4 (86a8ad7, 2024-10-11)"
   sodipodi:docname="logo-outline.svg"
   inkscape:export-filename="..\..\markdown\logo-outline.png"
   inkscape:export-xdpi="26.440001"
   inkscape:export-ydpi="26.440001"
   xmlns:inkscape="http://www.inkscape.org/namespaces/inkscape"
   xmlns:sodipodi="http://sodipodi.sourceforge.net/DTD/sodipodi-0.dtd"
   xmlns="http://www.w3.org/2000/svg"
   xmlns:svg="http://www.w3.org/2000/svg">
  <sodipodi:namedview
     id="namedview1"
     pagecolor="#ffffff"
     bordercolor="#666666"
     borderopacity="1.0"
     inkscape:showpageshadow="2"
     inkscape:pageopacity="0.0"
     inkscape:pagecheckerboard="0"
     inkscape:deskcolor="#d1d1d1"
     inkscape:document-units="mm"
     inkscape:zoom="0.18233463"
     inkscape:cx="836.37431"
     inkscape:cy="518.27785"
     inkscape:window-width="1920"
     inkscape:window-height="1009"
     inkscape:window-x="1912"
     inkscape:window-y="-8"
     inkscape:window-maximized="1"
     inkscape:current-layer="layer1" />
  <defs
     id="defs1" />
  <g
     inkscape:label="Livello 1"
     inkscape:groupmode="layer"
     id="layer1">
    <path
       d="m 108.20489,191.21215 q 6.41807,9.51962 3.66751,21.75916 -2.2922,10.1996 -10.54416,20.17251 -13.065396,15.41274 -33.46588,24.93236 -11.919404,5.43983 -22.004983,7.02639 -7.105763,0.90659 -12.607027,-1.13327 -2.979887,-1.13327 -4.355202,-2.71991 -1.604571,-2.03986 -4.355203,-3.39982 -8.022569,-3.85319 -8.251824,-13.82617 -0.228612,-5.89312 2.750632,-12.6929 6.41814,-13.59942 14.440709,-21.5324 9.627283,-9.7463 21.546616,-14.05278 3.438254,-1.13335 7.105763,-0.67941 2.979887,0.45365 5.730519,4.75985 0.916877,1.35988 -0.228612,3.1732 -1.604571,1.81325 -2.521377,2.71984 -5.730518,4.75985 -11.690221,12.91951 -7.793385,10.65297 -11.460894,17.67936 -3.209142,5.89312 -4.125948,11.10619 0,0.22647 -0.228612,1.35996 0,0 0.458653,0.6794 0.916806,0 3.667509,-0.90666 9.856324,-2.94652 19.942045,-9.29294 13.523833,-8.83971 22.92186,-21.53254 6.418141,-8.61296 7.793457,-18.35919 1.146133,-7.02646 -1.375316,-12.01292 -1.375316,-2.71999 -3.438325,-4.30655 -5.730447,-4.0798 -11.690221,-6.34642 -1.375316,-0.6794 -17.191342,-6.57302 -8.251895,-3.17328 -14.440781,-7.02647 -7.564273,-4.53316 -11.69015,-10.65289 -0.228612,-0.67941 -2.979815,-3.6265 -8.48115,-9.51962 -8.022712,-22.43913 0.228612,-4.75985 2.750703,-11.10633 8.939447,-23.119043 29.798369,-37.171827 12.377843,-8.386348 26.818624,-7.933053 7.105835,0.226469 13.294721,3.173207 5.501192,2.4933 7.793385,6.799709 2.75063,4.759917 4.35513,8.159665 1.83376,3.626573 1.14613,8.613102 -1.14613,7.932977 -3.89669,13.826027 -0.22861,0.45365 -1.83375,4.30655 -1.37532,3.62658 -2.292268,5.66651 0,0 -0.916806,1.13327 -1.604571,-0.6794 -1.604571,-2.26661 0.458653,-3.17321 0.687265,-5.21314 2.06301,-10.1996 1.604643,-17.452607 -0.228612,-4.759846 -1.375388,-8.839643 -0.916877,-2.946595 -4.125876,-3.853185 -8.022712,-2.4933 -14.899291,0.453652 -4.584315,2.039863 -7.793314,4.30648 -22.23431,15.866033 -29.340073,41.478373 -1.6045,5.43975 -1.146061,11.33287 0.228612,2.9466 2.292122,4.30655 6.418141,4.0798 7.564202,4.75978 5.959773,2.71991 16.274607,6.5731 9.856323,3.85311 14.669965,6.34641 16.045352,7.93305 25.214124,24.47899 0.68727,1.58664 1.6045,2.9466 z M 47.920315,95.789119 q -4.584386,5.439821 -4.81357,8.159731 9.62714,-10.426348 10.314762,-11.106327 0.916949,-0.906589 12.148731,-10.652822 -3.667509,1.359956 -8.93966,5.439753 -5.272009,3.853185 -8.710263,8.159665 z M 29.124331,239.71699 q 4.126019,-8.83971 8.481151,-15.1862 0.687265,-0.90666 9.856466,-14.05271 -9.398028,7.93298 -15.81624,19.49253 -2.521377,4.53317 -2.521377,9.74638 z m 52.03275,-2.04001 q 5.95963,-2.94652 11.919333,-10.42628 5.959702,-7.47968 6.188957,-12.01285 -8.022712,10.87958 -8.710406,11.55949 -0.687265,0.90673 -9.397884,10.87964 z"
       style="font-style:normal;font-variant:normal;font-weight:normal;font-stretch:normal;font-size:40.7199px;line-height:1.25;font-family:Guttenbay;-inkscape-font-specification:Guttenbay;text-align:center;text-anchor:middle;stroke:#ffffff;stroke-width:14.2883;stroke-miterlimit:4;stroke-dasharray:none;paint-order:stroke fill markers;fill:#000000"
       id="path44" />
    <path
       d="m 158.78338,128.20117 q 0,0 -1.14606,0.45365 -1.6045,6.1198 -1.83376,6.5731 -2.29219,9.293 -11.23171,38.75853 -6.18888,20.17258 -8.93951,32.86534 -2.06294,7.93312 -2.52138,12.01292 -1.14606,5.66644 0,9.74623 0.68726,2.26662 -0.22861,3.17321 -1.14614,1.13334 -3.43826,0 -0.45865,-0.22647 -1.37531,-0.67941 -0.68727,-0.22646 -1.14614,-0.22646 -4.35513,-2.03994 -5.50119,-6.79978 -0.91687,-4.0798 -0.68726,-7.70637 1.14606,-9.5197 1.6045,-12.69283 3.66751,-21.07918 11.91933,-48.27816 1.37532,-4.07979 3.66751,-11.55955 2.29226,-7.47969 2.75063,-9.29294 0,0 0.22861,-1.35988 -0.45865,-0.67941 -2.06301,-0.22647 -0.68726,0 -5.50119,1.35995 -4.81364,1.13328 -7.33502,1.58664 -1.6045,0.45366 -5.27201,0.67941 -2.52137,0.45365 -4.3552,-0.90666 -1.6045,-0.90666 -1.6045,-1.81325 -0.22861,-0.67941 -2.06301,-4.30648 0,0 -0.45865,-2.49316 4.3552,-4.07994 4.81357,-4.30655 0.22861,-0.45365 3.43825,-4.53316 1.8339,-0.45366 2.97989,0.22647 1.14606,0.45365 1.37532,1.35995 0.45865,0.68012 1.14606,2.26662 9.16877,-2.4933 9.85646,-2.4933 0.91681,-0.22647 10.31484,-2.49323 0.91687,-2.03993 1.14613,-2.03993 0.22861,-0.90667 1.14606,-3.17321 1.14606,-2.49323 1.6045,-3.85312 0.45865,-0.90659 1.14606,-2.49322 0.91695,-1.58664 0.91695,-1.81333 1.83375,-3.853182 6.41807,-3.1732 1.83375,2.04 3.66758,3.85318 0.22861,1.81325 -0.68727,5.21321 -0.68726,3.39982 -0.68726,5.21307 1.6045,0 1.83375,0 16.27454,-0.90666 16.96223,-0.90666 3.209,0 9.8564,0.67941 3.66744,0.45365 6.64725,2.49323 2.52145,1.58657 2.7507,4.53316 0,1.81332 -1.60457,1.81332 -1.37524,0.22647 -2.52144,0.22647 -5.27194,-0.45365 -13.75309,0.90666 -2.52145,0.45365 -22.23417,3.6265 z m -29.11075,74.11717 q -0.45865,0.45365 -0.68726,3.85319 -0.91688,0.90666 -0.22861,2.94659 0,-0.6794 0,-1.58664 0.22861,-0.90666 0.22861,-1.58657 0.68726,-0.6794 0.68726,-3.85325 0.68727,-0.90666 0.68727,-1.13327 3.20907,-13.82618 9.39795,-35.13196 0,-0.22647 0.45866,-3.17321 1.6045,-2.26655 2.06294,-6.79971 -0.22862,0.45365 -0.91681,2.03986 -0.45865,1.35996 -0.91695,2.4933 -0.22861,1.1332 0,2.26655 -0.68726,0.22647 -1.14606,2.26662 -5.9597,19.49253 -8.02271,29.23884 -1.6045,7.02632 -1.6045,8.15966 z m -1.83375,10.87958 v -1.81325 z"
       style="font-style:normal;font-variant:normal;font-weight:normal;font-stretch:normal;font-size:40.7199px;line-height:1.25;font-family:Guttenbay;-inkscape-font-specification:Guttenbay;text-align:center;text-anchor:middle;stroke:#ffffff;stroke-width:14.2883;stroke-miterlimit:4;stroke-dasharray:none;paint-order:stroke fill markers;fill:#000000"
       id="path46" />
    <path
       d="m 193.64615,170.13298 q -1.14606,4.07979 -1.6045,4.75977 -2.29219,-0.6794 -2.52145,-2.71991 -0.45865,-3.39982 -0.68726,-4.0798 0,-0.22647 -0.91688,-2.49323 -1.60457,0 -4.12595,2.03987 -3.43832,2.94659 -5.50119,6.57309 -3.66751,6.34642 -5.95978,11.10626 -4.81364,9.5197 -7.33501,17.45261 -1.14614,3.6265 -0.91688,4.98653 4.81364,-3.39997 9.85647,-9.06626 5.04282,-5.43989 7.56427,-10.65296 0.45865,-0.67941 5.73037,-11.78631 3.43826,-0.45366 3.66751,-0.45366 2.97989,0 4.12595,2.49323 0.91695,2.04001 2.52145,4.30655 1.37532,1.81326 0.91681,4.53317 -0.68727,6.79978 -0.91681,11.33287 -0.45865,8.15974 1.6045,16.99938 0.22861,1.81325 0.22861,2.94659 0,0.90659 -0.91695,1.35989 -0.68726,0.22647 -1.37531,-0.22647 -0.91681,-0.67941 -1.37525,-1.35981 -3.89676,-4.07994 -5.04282,-8.15974 -0.22861,-0.45365 -2.06301,-6.1198 -0.68727,0 -1.83376,1.58664 -5.04275,6.57309 -13.06546,12.91951 -3.66751,3.1732 -6.64733,3.85318 -2.06301,0.45365 -4.58445,0.67941 -2.06287,0 -4.58432,-1.81318 -0.22861,-0.22647 -1.83375,-2.03986 -1.6045,-1.81333 -3.20907,-3.62658 -1.37525,-2.03993 -1.6045,-2.26661 -1.83376,-4.53317 -0.68727,-10.87958 1.14606,-6.34641 3.89677,-12.23953 4.81356,-9.97292 11.69007,-19.71922 3.20907,-4.75978 6.41814,-7.25308 4.35521,-3.39982 8.02272,-4.30648 2.29219,-0.45365 4.58431,-0.45365 3.43825,0.22647 5.50126,2.94652 0.68727,0.90667 2.06294,3.17328 1.83376,2.71984 0.91695,5.66644 z M 181.03912,201.185 q -1.83375,1.81332 -5.95963,5.89319 -4.12595,4.07979 -6.41821,6.34634 2.29226,-1.1332 4.81371,-3.17321 2.75056,-2.26654 4.81357,-4.75977 2.06294,-2.49323 2.75056,-4.30655 z m -4.35513,-33.31864 q 0,0 0.45865,-0.90666 -1.6045,0.90666 -2.29212,2.4933 1.6045,-1.58664 1.83376,-1.58664 z"
       style="font-style:normal;font-variant:normal;font-weight:normal;font-stretch:normal;font-size:40.7199px;line-height:1.25;font-family:Guttenbay;-inkscape-font-specification:Guttenbay;text-align:center;text-anchor:middle;stroke:#ffffff;stroke-width:14.2883;stroke-miterlimit:4;stroke-dasharray:none;paint-order:stroke fill markers;fill:#000000"
       id="path48" />
    <path
       d="m 210.6621,164.91984 q 0,-0.22647 0.68727,-3.62658 2.52137,-0.6794 2.97988,-0.45365 0.68727,0.22647 2.06287,1.81325 2.06294,2.4933 2.06294,5.4399 0,4.53302 0,5.21307 -0.22861,1.81332 -0.45865,3.85318 0,1.81318 -0.22862,4.0798 -0.22861,2.26654 -0.22861,3.62657 0,0 -0.22861,2.49316 0.68726,0.45365 1.37532,-0.67941 0.68726,-1.13327 1.60449,-2.71984 0.91695,-1.81332 1.83376,-3.39996 0.91695,-1.58657 1.60464,-2.71984 3.209,-5.43975 7.10576,-9.74623 0.68727,-0.90666 3.43826,-3.39989 1.83375,-1.81325 5.27201,-1.81325 2.52137,0 3.43832,1.81325 0.22861,0.45365 0.91681,1.35995 3.66751,4.53317 2.52145,9.74631 0,0.22647 -0.45866,3.6265 0.91681,-0.45365 2.52131,-2.9466 5.95977,-8.83964 12.60703,-14.05278 3.66751,-2.94652 7.10583,-3.17321 3.66751,-0.22647 5.27201,2.26662 3.20914,4.75978 3.20914,4.98639 1.14606,2.04 0.91688,5.43989 -0.45865,7.47969 -2.97989,18.58588 -0.68726,3.17328 -2.52145,10.42628 -1.83375,7.25307 -2.97981,12.69283 -1.14613,5.43989 -2.06294,10.42621 -2.06301,13.14626 -2.29226,14.73283 -0.91681,7.25308 0.45865,11.78624 3.89676,4.53316 4.12595,4.98639 1.14606,1.58671 -0.91688,2.26661 -3.20907,1.58671 -6.18889,-1.13327 -5.27201,-4.75977 -6.87651,-7.47969 -1.60457,-2.94659 -2.52144,-5.89312 -3.66751,-11.33287 -1.14606,-25.61226 1.83375,-9.5197 6.41807,-22.66589 1.60457,-4.98646 5.73044,-17.4526 0,0 0.45866,-2.03994 -0.68727,-0.22646 -1.60458,0.67941 -5.73044,6.34641 -10.31483,14.73276 -1.60457,2.71999 -4.58439,8.38635 -2.75056,5.43982 -4.12594,7.93305 -1.14606,2.49316 -3.43833,6.11973 -1.37524,2.03994 -3.89669,1.81326 -1.14606,0 -1.37525,-0.45366 -2.97981,-2.71991 -4.35513,-4.07994 -0.68726,-1.1332 -0.22861,-4.07979 0.91688,-5.66651 1.60457,-9.97292 0.68727,-2.94659 1.83376,-8.38642 1.14606,-5.43975 1.37531,-6.5731 0,0 0,-1.13327 -0.45865,-0.22647 -1.14606,0.90666 -3.89676,6.11973 -5.95977,9.5197 -0.91681,1.35995 -2.97982,4.98645 -2.06301,3.6265 -3.20914,5.43976 -0.91681,1.35995 -3.89662,5.43975 -1.37539,2.04 -3.43833,2.71998 -2.75063,0.67941 -4.58438,-1.13334 -0.22862,-0.22647 -0.68727,-0.67941 -0.45865,-0.45365 -0.9168,-0.67941 -0.22862,-0.45365 -0.68727,-0.90666 -0.22861,-0.45365 -0.68726,-0.6794 -1.83376,-1.81325 -1.83376,-4.30648 0,-2.71984 0.22861,-4.53317 0.68727,-4.3064 2.06301,-12.23953 1.37532,-7.93298 1.83376,-10.65282 0.22861,-1.81332 0.68726,-4.75992 0.45866,-3.17321 0.68727,-4.0798 z"
       style="font-style:normal;font-variant:normal;font-weight:normal;font-stretch:normal;font-size:40.7199px;line-height:1.25;font-family:Guttenbay;-inkscape-font-specification:Guttenbay;text-align:center;text-anchor:middle;stroke:#ffffff;stroke-width:14.2883;stroke-miterlimit:4;stroke-dasharray:none;paint-order:stroke fill markers;fill:#000000"
       id="path50" />
    <path
       d="m 296.44006,208.89137 q 1.83376,-2.03987 5.27208,-1.81318 1.14607,2.03993 1.14607,2.94652 0.22861,0.90666 0,4.30655 1.37531,-0.45365 1.37531,-0.45365 10.54409,-6.79978 15.58691,-18.13265 5.04276,-11.55956 4.12595,-22.21245 0,0 -0.45865,-2.4933 -1.83376,0.90673 -2.06294,0.90673 -4.35513,2.71984 -8.71033,8.1596 -9.62729,12.01292 -19.02517,30.1455 -0.91688,1.35995 -2.52145,8.61303 -1.37524,7.253 -6.18888,31.95868 -2.75064,14.27954 -4.12595,25.83909 -0.22861,2.49323 0,6.34642 0,4.75977 2.29219,7.93298 0,0 0.91688,1.81325 -0.45865,2.4933 -2.97982,2.03993 -9.16877,-1.58656 -12.14859,-8.38627 -1.83375,-4.75985 -1.83375,-9.29301 -0.22861,-7.93306 0.22861,-14.73276 0.45865,-4.75985 1.83376,-14.73277 1.37531,-11.55955 5.04282,-26.29231 7.10576,-29.91882 8.71026,-36.26531 0.68727,-2.71984 5.50127,-17.67928 0,-0.22647 1.14613,-2.94653 1.6045,-3.62657 5.27201,-3.62657 3.89676,2.49323 4.3552,3.62657 0.45865,0.90659 -0.22861,4.98646 -0.22861,2.26655 -0.68727,7.02632 -0.22861,0.22647 -0.22861,3.62658 1.60457,-2.03994 1.60457,-2.26655 6.18889,-8.83964 6.41814,-8.83964 2.97982,-4.07994 6.87658,-6.79978 3.66751,-2.4933 8.25183,-2.4933 5.04275,0 7.79345,3.85325 8.2519,10.87958 6.18889,23.3458 -3.20907,18.13258 -14.89915,30.1455 -4.58446,4.7597 -9.85646,7.47961 -3.20907,1.81325 -5.95978,2.04001 -5.27186,0.6794 -8.02257,-3.17321 -0.68726,-0.90673 -2.29219,-2.4933 -2.75063,-2.94652 -0.91688,-6.79971 1.14606,-2.26654 3.20907,-5.21314 z m -15.58691,19.26592 q -2.06294,6.57317 -4.12588,21.30593 -2.29219,14.73276 -1.83375,19.03917 1.37532,-9.97284 1.37532,-10.65282 0.68726,-4.30655 2.06286,-12.46629 1.60464,-8.15959 2.06301,-10.65282 0.91695,-4.53316 0.45865,-6.57317 z m 36.44591,-16.99931 q -0.45866,0.45366 -2.06301,2.03994 -1.37532,1.35995 -2.29219,2.26662 0,0 0.22861,0.22646 0.22861,0 0.22861,0 3.20907,-2.94652 3.66751,-3.62657 0.68726,-0.67941 0.22861,-0.90659 z m -5.73052,-38.30516 q 1.14606,-1.13328 2.97981,-2.71984 0,-0.22647 -0.22861,-0.45365 -0.22861,-0.22647 -0.22861,-0.22647 -2.29219,2.03993 -2.5213,3.39989 z m -37.36264,97.91619 v 3.17321 q 0,0 0.22861,0 v -3.17321 z M 307.90103,176.706 q 1.14606,-0.90666 1.14606,-0.90666 0.22861,-0.22647 0.91688,-1.1332 -1.14613,0 -2.06294,2.03986 z"
       style="font-style:normal;font-variant:normal;font-weight:normal;font-stretch:normal;font-size:40.7199px;line-height:1.25;font-family:Guttenbay;-inkscape-font-specification:Guttenbay;text-align:center;text-anchor:middle;stroke:#ffffff;stroke-width:14.2883;stroke-miterlimit:4;stroke-dasharray:none;paint-order:stroke fill markers;fill:#000000"
       id="path52" />
    <path
       d="m 379.88647,170.13298 q -1.14613,4.07979 -1.6045,4.75977 -2.29219,-0.6794 -2.52145,-2.71991 -0.45865,-3.39982 -0.68726,-4.0798 0,-0.22647 -0.91681,-2.49323 -1.60464,0 -4.12595,2.03987 -3.43825,2.94659 -5.50126,6.57309 -3.66751,6.34642 -5.9597,11.10626 -4.81364,9.5197 -7.33502,17.45261 -1.14613,3.6265 -0.91688,4.98653 4.81357,-3.39997 9.8564,-9.06626 5.04289,-5.43989 7.56427,-10.65296 0.45865,-0.67941 5.73045,-11.78631 3.43825,-0.45366 3.66751,-0.45366 2.97981,0 4.12594,2.49323 0.91688,2.04001 2.52138,4.30655 1.37532,1.81326 0.91695,4.53317 -0.68727,6.79978 -0.91695,11.33287 -0.45865,8.15974 1.60457,16.99938 0.22861,1.81325 0.22861,2.94659 0,0.90659 -0.91687,1.35989 -0.68727,0.22647 -1.37525,-0.22647 -0.91695,-0.67941 -1.37539,-1.35981 -3.89669,-4.07994 -5.04282,-8.15974 -0.22861,-0.45365 -2.06301,-6.1198 -0.68727,0 -1.83375,1.58664 -5.04276,6.57309 -13.0654,12.91951 -3.66751,3.1732 -6.64732,3.85318 -2.06301,0.45365 -4.58446,0.67941 -2.06294,0 -4.58432,-1.81318 -0.22861,-0.22647 -1.83375,-2.03986 -1.6045,-1.81333 -3.209,-3.62658 -1.37539,-2.03993 -1.60464,-2.26661 -1.83376,-4.53317 -0.68727,-10.87958 1.14614,-6.34641 3.89677,-12.23953 4.81364,-9.97292 11.69015,-19.71922 3.20907,-4.75978 6.41814,-7.25308 4.3552,-3.39982 8.02271,-4.30648 2.29212,-0.45365 4.58431,-0.45365 3.43826,0.22647 5.50127,2.94652 0.68726,0.90667 2.06301,3.17328 1.83375,2.71984 0.9168,5.66644 z M 367.27951,201.185 q -1.83375,1.81332 -5.95977,5.89319 -4.12595,4.07979 -6.41807,6.34634 2.29212,-1.1332 4.81357,-3.17321 2.75056,-2.26654 4.81357,-4.75977 2.06301,-2.49323 2.7507,-4.30655 z m -4.3552,-33.31864 q 0,0 0.45865,-0.90666 -1.6045,0.90666 -2.29219,2.4933 1.60457,-1.58664 1.83376,-1.58664 z"
       style="font-style:normal;font-variant:normal;font-weight:normal;font-stretch:normal;font-size:40.7199px;line-height:1.25;font-family:Guttenbay;-inkscape-font-specification:Guttenbay;text-align:center;text-anchor:middle;stroke:#ffffff;stroke-width:14.2883;stroke-miterlimit:4;stroke-dasharray:none;paint-order:stroke fill markers;fill:#000000"
       id="path54" />
    <path
       d="m 433.80684,232.01048 q 0,0 0,0.6794 -0.91695,1.13335 -2.75099,0.45366 -1.60428,-0.67941 -2.5213,-1.58664 -6.41836,-6.11973 -7.56442,-13.59942 0,-0.22647 -0.91645,-4.75985 -1.83397,1.13335 -1.83397,1.35996 -5.73052,4.30655 -5.73052,4.30655 -1.83389,1.1332 -4.12616,1.81318 -7.3348,2.03993 -11.23128,-4.53316 -1.60486,-2.49323 -2.06308,-3.17321 -5.04283,-4.75978 -4.81357,-13.59942 0.22861,-6.11973 3.89655,-14.05285 4.35527,-9.74624 10.77313,-17.90597 4.58438,-5.66637 10.31483,-8.83957 6.64754,-3.39989 13.29494,-2.26662 0.68797,-1.58657 0.68797,-1.58657 5.04254,-16.77277 14.66961,-43.74499 2.06308,-5.43975 3.6673,-9.51969 0,-0.22647 1.60493,-3.853186 5.27229,-0.453652 7.3348,1.586639 -0.23076,0.906587 -0.23076,2.266547 0.68798,0.22647 0.91702,0.22647 0.23076,0.22647 0.23076,0.22647 2.06308,5.43975 1.14613,8.15959 -0.68798,2.26662 -1.37517,4.75992 -0.68798,2.26654 -1.37525,4.30641 -0.68798,2.04 -1.60485,4.53316 -0.68727,2.49337 -1.37518,4.53323 -0.45579,2.03994 -1.37524,4.53317 -0.68798,2.49322 -1.37517,4.53316 -0.91702,3.39982 -5.04319,16.09272 -4.12559,12.46614 -6.18867,19.26592 -5.27236,17.4526 -7.56448,32.41198 -1.14614,7.70637 -1.14614,13.37287 0,7.7063 3.20922,12.23947 0.23075,0.45365 0.45579,1.36002 z M 406.07141,204.3582 q 0,0.22647 -0.23076,3.62658 2.52188,-1.13328 2.52188,-1.13328 4.58439,-2.26654 9.85611,-6.7997 2.29219,-1.81333 2.52123,-4.98646 0.68798,-5.43983 1.37582,-9.51969 0.4558,-2.26662 0.91645,-4.98646 0.68798,-2.71991 1.14613,-5.43976 0.68798,-2.94659 1.14606,-4.98645 0,0 0,-2.71991 -3.89648,3.1732 -6.64689,7.47968 -9.39789,14.73276 -12.6071,29.46545 z m 13.75316,-40.3451 q -3.89705,1.13335 -5.04311,4.53317 2.29212,-2.03987 2.52123,-2.26655 0.23076,-0.22647 0.68798,-0.67941 0.4558,-0.45365 0.91702,-0.90666 0.68727,-0.45365 0.91688,-0.6794 z m -3.89705,44.65166 q 2.06308,-0.45366 2.9801,-2.49323 -1.1462,0.90666 -2.9801,2.49323 z"
       style="font-style:normal;font-variant:normal;font-weight:normal;font-stretch:normal;font-size:40.7199px;line-height:1.25;font-family:Guttenbay;-inkscape-font-specification:Guttenbay;text-align:center;text-anchor:middle;stroke:#ffffff;stroke-width:14.2883;stroke-miterlimit:4;stroke-dasharray:none;paint-order:stroke fill markers;fill:#000000"
       id="path56" />
    <path
       d="m 461.44211,159.25333 q 3.20857,-1.35996 5.04261,1.13334 0,0 1.60421,1.81318 -0.68726,2.71999 -0.68726,2.71999 -1.14613,3.62643 -3.20921,9.97291 -1.8339,6.34642 -3.43826,11.78624 -1.60436,5.21314 -2.9801,9.7463 -1.14606,3.39975 -2.29219,9.97285 -0.4558,1.36003 -0.4558,4.75984 -0.23075,5.21315 2.75092,7.70645 0.23075,0 1.37524,1.58649 -2.29219,2.26662 -5.5014,0.45365 -9.39789,-5.21314 -10.0858,-15.63942 -0.68726,-7.47969 0.91702,-14.27939 2.98011,-12.91959 10.0858,-24.93251 1.37524,-2.26654 3.66736,-4.75977 1.14614,-1.13328 3.20922,-2.03994 z m -0.68798,9.06632 q 0.23076,-0.6794 0.68798,-1.58656 0.68726,-1.13328 0.91645,-1.81325 0,0 -0.23076,0 -0.23075,0 -0.23075,-0.22647 -0.23076,0.6794 -0.91638,1.58664 -0.46151,0.90659 -0.68798,1.58656 0,0 0,0.22647 0.23076,0 0.4558,0.22647 z m 15.1284,-41.02507 q 2.75042,2.4933 0.68798,6.79978 -1.37581,3.1732 -2.52137,5.43975 -2.9801,6.34641 -2.75092,10.1996 -2.29227,1.13334 -3.66744,0 -4.8135,-4.30648 -4.35527,-10.42621 0.23075,-3.62658 0.91695,-5.89312 0.68726,-3.17321 3.20928,-5.66644 1.8334,-1.81332 3.20857,-2.26661 1.37575,-0.45366 4.12616,0.22646 0.91702,1.35996 1.14606,1.58657 z"
       style="font-style:normal;font-variant:normal;font-weight:normal;font-stretch:normal;font-size:40.7199px;line-height:1.25;font-family:Guttenbay;-inkscape-font-specification:Guttenbay;text-align:center;text-anchor:middle;stroke:#ffffff;stroke-width:14.2883;stroke-miterlimit:4;stroke-dasharray:none;paint-order:stroke fill markers;fill:#000000"
       id="path58" />
    <path
       d="m 508.3746,170.13298 q -1.14657,4.07979 -1.60486,4.75977 -2.29212,-0.6794 -2.52131,-2.71991 -0.45579,-3.39982 -0.68798,-4.0798 0,-0.22647 -0.91637,-2.49323 -1.60493,0 -4.12617,2.03987 -3.43839,2.94659 -5.50147,6.57309 -3.6673,6.34642 -5.95956,11.10626 -4.8135,9.5197 -7.33474,17.45261 -1.14613,3.6265 -0.91702,4.98653 4.8135,-3.39997 9.85611,-9.06626 5.04319,-5.43989 7.56442,-10.65296 0.4558,-0.67941 5.73052,-11.78631 3.43825,-0.45366 3.66736,-0.45366 2.98011,0 4.12624,2.49323 0.91695,2.04001 2.52123,4.30655 1.37525,1.81326 0.91702,4.53317 -0.68798,6.79978 -0.91702,11.33287 -0.45579,8.15974 1.60436,16.99938 0.23075,1.81325 0.23075,2.94659 0,0.90659 -0.91637,1.35989 -0.68798,0.22647 -1.37575,-0.22647 -0.91645,-0.67941 -1.37517,-1.35981 -3.89655,-4.07994 -5.04268,-8.15974 -0.23076,-0.45365 -2.06301,-6.1198 -0.68798,0 -1.83404,1.58664 -5.04254,6.57309 -13.06525,12.91951 -3.66744,3.1732 -6.64754,3.85318 -2.06308,0.45365 -4.58432,0.67941 -2.06308,0 -4.58438,-1.81318 -0.23076,-0.22647 -1.83347,-2.03986 -1.60479,-1.81333 -3.20914,-3.62658 -1.37525,-2.03993 -1.60493,-2.26661 -1.8334,-4.53317 -0.68727,-10.87958 1.14606,-6.34641 3.89648,-12.23953 4.81343,-9.97292 11.69008,-19.71922 3.20914,-4.75978 6.41843,-7.25308 4.3552,-3.39982 8.02264,-4.30648 2.29219,-0.45365 4.58431,-0.45365 3.4384,0.22647 5.50141,2.94652 0.68726,0.90667 2.06258,3.17328 1.83397,2.71984 0.91695,5.66644 z M 495.76757,201.185 q -1.83397,1.81332 -5.96013,5.89319 -4.12559,4.07979 -6.41779,6.34634 2.2922,-1.1332 4.81343,-3.17321 2.75042,-2.26654 4.8135,-4.75977 2.06308,-2.49323 2.75099,-4.30655 z m -4.35535,-33.31864 q 0,0 0.4558,-0.90666 -1.60486,0.90666 -2.2922,2.4933 1.60436,-1.58664 1.8334,-1.58664 z"
       style="font-style:normal;font-variant:normal;font-weight:normal;font-stretch:normal;font-size:40.7199px;line-height:1.25;font-family:Guttenbay;-inkscape-font-specification:Guttenbay;text-align:center;text-anchor:middle;stroke:#ffffff;stroke-width:14.2883;stroke-miterlimit:4;stroke-dasharray:none;paint-order:stroke fill markers;fill:#000000"
       id="path60" />
    <text
       xml:space="preserve"
       style="font-style:normal;font-weight:normal;font-size:43.4623px;line-height:1.25;font-family:sans-serif;fill:#000000;fill-opacity:1;stroke:#ffffff;stroke-width:14.2883;stroke-miterlimit:4;stroke-dasharray:none;paint-order:stroke fill markers"
       x="223.83774"
       y="141.0049"
       id="text444964"
       transform="scale(1.0279369,0.97282235)"><tspan
         sodipodi:role="line"
         id="tspan444962"
         style="font-style:normal;font-variant:normal;font-weight:normal;font-stretch:normal;font-family:Seshat;-inkscape-font-specification:Seshat;stroke:#ffffff;stroke-width:14.2883;stroke-miterlimit:4;stroke-dasharray:none;paint-order:stroke fill markers;fill:#000000"
         x="223.83774"
         y="141.0049">Mazes of</tspan></text>
    <path
       style="font-weight:500;font-size:38.112px;line-height:1.25;font-family:'Jost*';-inkscape-font-specification:'Jost* Medium';text-align:center;text-anchor:middle;fill:none;stroke:#ff0000;stroke-width:3.57206;stroke-miterlimit:4;stroke-dasharray:none;paint-order:stroke fill markers"
       d="m 557.35002,182.69914 c -5.01461,-7.61614 20.75526,10.44971 12.64574,10.33312 l -0.0643,-31.05666 m 6.84464,-72.905176 c -5.12227,0.708698 -9.37438,4.548166 -12.8102,11.482546 -3.39089,6.63832 -5.07741,14.75683 -5.05947,24.41834 l -17.65443,1.56092 m 35.27291,-72.671922 c 7.86733,-1.489122 14.72098,0.322915 20.51608,5.525983 5.90276,5.301728 10.46886,13.016528 13.65343,23.135541 3.33716,10.208672 5.05054,21.709148 5.1044,34.429618 0.0643,13.23185 -2.00049,24.99244 -6.14495,35.16525 -3.98306,10.06522 -9.35652,17.95941 -16.0397,23.69171 7.71487,4.83522 14.03921,12.75642 18.90136,23.80838 5.05947,10.97116 7.661,25.53068 7.74173,43.57975 0.0714,15.53733 -1.82104,28.82298 -5.66058,39.74935 -3.7946,10.83664 -9.07833,18.80263 -15.78845,23.90696 -6.58453,4.76349 -14.13787,6.31541 -22.57037,4.74556 h 0.001 m -39.60575,-79.24744 18.81163,1.40839 c 0.007,11.5902 1.98249,21.08125 5.93863,28.53593 4.01885,7.54434 9.04246,11.75159 15.11568,12.55902 6.30641,0.83422 11.39281,-2.02743 15.22328,-8.64783 M 694.9934,328.6428 644.37155,319.52853 642.7389,45.535471 692.43673,36.385345 c 17.08033,-3.148774 32.76111,0.242186 46.86312,10.540588 14.58638,10.3702 26.40084,26.957077 35.20111,49.868293 9.18607,23.090674 14.08408,51.267754 14.55059,84.208254 0.45722,33.07509 -3.66908,61.72762 -12.2899,85.57178 -8.28897,23.14455 -19.83431,40.24273 -34.38483,51.31263 -14.08407,10.42399 -29.96225,13.88668 -47.38342,10.75591 z m -2.86165,-246.461886 -23.2432,2.960312 1.42639,193.561484 23.55712,2.87065 c 11.08783,1.34559 21.20684,-1.31874 30.24038,-8.12752 9.41024,-6.93437 16.93672,-18.067 22.4627,-33.41594 5.60671,-15.52833 8.2889,-35.22805 8.00185,-58.91083 -0.28719,-23.61991 -3.43575,-43.15817 -9.36545,-58.47118 -5.83989,-15.07982 -13.54576,-25.970256 -23.00094,-32.707311 -9.0784,-6.611389 -19.13455,-9.150126 -30.07885,-7.759665 z"
       id="path1"
       aria-label="3D"
       sodipodi:nodetypes="cccccccccccccccccccccccccccccccccccccccccscc" />
    <path
       style="font-weight:500;font-size:38.112px;line-height:1.25;font-family:'Jost*';-inkscape-font-specification:'Jost* Medium';text-align:center;text-anchor:middle;fill:#ff0000;stroke:#ff0000;stroke-width:3.19853;stroke-miterlimit:4;stroke-dasharray:none;paint-order:stroke fill markers"
       d="m 549.77617,311.59841 c -8.57603,-1.59678 -15.78845,-6.35127 -21.70915,-14.18274 -5.81303,-7.68793 -10.26253,-17.22384 -13.40231,-28.61665 -3.00517,-11.25822 -4.4943,-23.38666 -4.4943,-36.44805 l 18.81163,1.40839 c 0.007,11.5902 1.9825,21.08125 5.93863,28.53593 4.01886,7.54434 9.04247,11.75159 15.11569,12.55902 6.30641,0.83422 11.39281,-2.02743 15.22328,-8.64783 3.98299,-6.67418 5.96556,-16.46128 5.92069,-29.28049 -0.0429,-13.79695 -2.70019,-24.59773 -7.91219,-32.33946 -5.01461,-7.61614 -11.62607,-11.43768 -19.73558,-11.55427 l -0.0643,-31.05666 c 7.29323,-0.23361 13.09726,-4.25219 17.31351,-12.11951 4.27004,-8.19024 6.40507,-17.77995 6.3692,-28.67939 -0.0286,-10.15487 -1.49812,-18.21059 -4.3777,-24.113355 -2.86166,-6.100084 -7.03304,-8.746483 -12.46036,-7.992921 -5.12227,0.708698 -9.37438,4.548166 -12.81021,11.482546 -3.39089,6.63832 -5.0774,14.75683 -5.05947,24.41834 l -17.65442,1.56092 c -0.007,-12.76534 1.38153,-24.22995 4.18931,-34.47456 2.92452,-10.55852 6.99718,-19.134545 12.25404,-25.719072 5.32866,-6.925374 11.5902,-11.10576 18.82956,-12.47829 7.86733,-1.489122 14.72097,0.322915 20.51608,5.525983 5.90276,5.301728 10.46886,13.016528 13.65342,23.135541 3.33717,10.208672 5.05054,21.709148 5.10441,34.429618 0.0643,13.23185 -2.0005,24.99244 -6.14495,35.16525 -3.98306,10.06522 -9.35652,17.95941 -16.03971,23.69171 7.71487,4.83522 14.03921,12.75642 18.90136,23.80838 5.05947,10.97116 7.66101,25.53068 7.74174,43.57975 0.0714,15.53733 -1.82104,28.82298 -5.66058,39.74935 -3.79461,10.83664 -9.07833,18.80263 -15.78845,23.90696 -6.58453,4.76349 -14.13787,6.31541 -22.57037,4.74556 z m 118.75454,17.04439 -50.62186,-9.11427 -1.63265,-273.993059 49.69784,-9.150126 c 17.08032,-3.148774 32.76111,0.242186 46.86312,10.540588 14.58637,10.3702 26.40083,26.957077 35.20111,49.868293 9.18606,23.090674 14.08407,51.267754 14.55059,84.208254 0.45722,33.07509 -3.66908,61.72762 -12.2899,85.57178 -8.28898,23.14455 -19.83431,40.24273 -34.38483,51.31263 -14.08407,10.42399 -29.96225,13.88668 -47.38342,10.75591 z m -2.86165,-246.461886 -23.24321,2.960312 1.4264,193.561484 23.55712,2.87065 c 11.08782,1.34559 21.20684,-1.31874 30.24037,-8.12752 9.41025,-6.93437 16.93673,-18.067 22.46271,-33.41594 5.60671,-15.52833 8.2889,-35.22805 8.00185,-58.91083 -0.28719,-23.61991 -3.43575,-43.15817 -9.36545,-58.47118 -5.8399,-15.07982 -13.54577,-25.970256 -23.00095,-32.707311 -9.0784,-6.611389 -19.13454,-9.150126 -30.07884,-7.759665 z"
       id="text131"
       aria-label="3D" />
    <path
       style="fill:none;stroke:#ff0000;stroke-width:3.57206;stroke-linecap:butt;stroke-linejoin:miter;stroke-dasharray:none;stroke-opacity:1"
       d="M 703.91843,35.255644 H 678.04254"
       id="path97" />
    <path
       style="fill:none;stroke:#ff0000;stroke-width:3.57206;stroke-linecap:butt;stroke-linejoin:miter;stroke-dasharray:none;stroke-opacity:1"
       d="M 704.40616,329.74435 H 680.37467"
       id="path98" />
    <path
       style="fill:none;stroke:#ff0000;stroke-width:1.89021px;stroke-linecap:butt;stroke-linejoin:miter;stroke-opacity:1"
       d="M 668.88913,85.141226 H 641.17384"
       id="path99" />
    <path
       style="fill:none;stroke:#ff0000;stroke-width:1.89021px;stroke-linecap:butt;stroke-linejoin:miter;stroke-opacity:1"
       d="M 670.31553,278.70271 H 638.47537"
       id="path100" />
    <path
       style="fill:#ff0000;stroke:#ff0000;stroke-width:3.57206;stroke-linecap:butt;stroke-linejoin:miter;stroke-dasharray:none;stroke-opacity:1"
       d="M 580.10399,53.406513 H 552.42493"
       id="path101" />
    <path
       style="fill:#000000;stroke:#ff0000;stroke-width:1.89021px;stroke-linecap:butt;stroke-linejoin:miter;stroke-opacity:1"
       d="M 593.61425,175.80841 H 562.76898"
       id="path102" />
    <path
       style="fill:#ff0000;stroke:#ff0000;stroke-width:3.57206;stroke-linecap:butt;stroke-linejoin:miter;stroke-dasharray:none;stroke-opacity:1"
       d="M 582.99407,312.18337 H 554.67375"
       id="path103" />
    <path
       style="font-variation-settings:normal;fill:#ff0000;fill-opacity:1;stroke:#ff0000;stroke-width:3.57206;stroke-linecap:butt;stroke-linejoin:miter;stroke-miterlimit:4;stroke-dasharray:none;stroke-dashoffset:0;stroke-opacity:1;stop-color:#000000"
       d="m 510.17049,232.35104 18.81163,1.40839 27.36672,-0.816 -20.72397,-1.43111 z"
       id="path105" />
    <path
       style="font-variation-settings:normal;fill:#ff0000;fill-opacity:1;stroke:#ff0000;stroke-width:1.89021px;stroke-linecap:butt;stroke-linejoin:miter;stroke-miterlimit:4;stroke-dasharray:none;stroke-dashoffset:0;stroke-opacity:1;stop-color:#000000"
       d="m 514.78881,126.53216 25.55333,0.72434 19.39887,-1.69595 -27.29621,-0.63582 z"
       id="path106" />
  </g>
</svg>
