<?xml version="1.0" encoding="UTF-8" standalone="no"?>
<!-- Created with Inkscape (http://www.inkscape.org/) -->

<svg
   width="1200mm"
   height="630mm"
   viewBox="0 0 1200 630"
   version="1.1"
   id="svg1"
   inkscape:version="1.4 (86a8ad7, 2024-10-11)"
   sodipodi:docname="og-image.svg"
   inkscape:export-filename="..\..\images\og-image.png"
   inkscape:export-xdpi="25.4"
   inkscape:export-ydpi="25.4"
   xmlns:inkscape="http://www.inkscape.org/namespaces/inkscape"
   xmlns:sodipodi="http://sodipodi.sourceforge.net/DTD/sodipodi-0.dtd"
   xmlns:xlink="http://www.w3.org/1999/xlink"
   xmlns="http://www.w3.org/2000/svg"
   xmlns:svg="http://www.w3.org/2000/svg">
  <sodipodi:namedview
     id="namedview1"
     pagecolor="#ffffff"
     bordercolor="#666666"
     borderopacity="1.0"
     inkscape:showpageshadow="2"
     inkscape:pageopacity="0.0"
     inkscape:pagecheckerboard="0"
     inkscape:deskcolor="#d1d1d1"
     inkscape:document-units="mm"
     inkscape:zoom="0.17972959"
     inkscape:cx="2470.3779"
     inkscape:cy="1543.9862"
     inkscape:window-width="1920"
     inkscape:window-height="1009"
     inkscape:window-x="1912"
     inkscape:window-y="-8"
     inkscape:window-maximized="1"
     inkscape:current-layer="layer1" />
  <defs
     id="defs1">
    <linearGradient
       id="linearGradient6"
       inkscape:collect="always">
      <stop
         style="stop-color:#ff0000;stop-opacity:1;"
         offset="0"
         id="stop6" />
      <stop
         style="stop-color:#460000;stop-opacity:1;"
         offset="1"
         id="stop7" />
    </linearGradient>
    <linearGradient
       inkscape:collect="always"
       xlink:href="#linearGradient6"
       id="linearGradient7"
       x1="823.91571"
       y1="168.52411"
       x2="1320.3766"
       y2="664.98499"
       gradientUnits="userSpaceOnUse" />
  </defs>
  <g
     inkscape:label="Livello 1"
     inkscape:groupmode="layer"
     id="layer1">
    <rect
       style="fill:#000000;stroke:none;stroke-width:3.93599;stroke-linecap:square;paint-order:stroke fill markers"
       id="rect1"
       width="1723.8488"
       height="1116.161"
       x="-138.48665"
       y="-208.76347" />
    <g
       id="g2"
       transform="matrix(6.7102806,6.7102806,-6.7102806,6.7102806,-7346.8373,452.3431)"
       style="opacity:0.12291351">
      <path
         style="font-variation-settings:normal;fill:none;fill-opacity:1;stroke:#ffffff;stroke-width:2;stroke-linecap:butt;stroke-linejoin:miter;stroke-miterlimit:4;stroke-dasharray:none;stroke-dashoffset:0;stroke-opacity:1;paint-order:stroke fill markers;stop-color:#000000"
         d="m 598.43371,-582.11664 0.017,-36.78465 -36.78462,-0.017 -0.0138,29.94595 6.83552,6.84185 z"
         id="path70-18" />
      <path
         style="font-variation-settings:normal;fill:none;fill-opacity:1;stroke:#ffffff;stroke-width:2;stroke-linecap:butt;stroke-linejoin:miter;stroke-miterlimit:4;stroke-dasharray:none;stroke-dashoffset:0;stroke-opacity:1;stop-color:#000000"
         d="m 592.54229,-618.90401 -0.008,16.58329 -24.85446,-0.0115 0.008,-16.58335"
         id="path71-4" />
      <path
         style="font-variation-settings:normal;fill:none;fill-opacity:1;stroke:#ffffff;stroke-width:2;stroke-linecap:butt;stroke-linejoin:miter;stroke-miterlimit:4;stroke-dasharray:none;stroke-dashoffset:0;stroke-opacity:1;stop-color:#000000"
         d="m 592.46862,-582.01837 0.005,-11.33382 -24.85446,-0.0115 -0.005,10.40676"
         id="path72-9"
         sodipodi:nodetypes="cccc" />
      <rect
         style="fill:#ffffff;stroke:none;stroke-width:3.936;stroke-dasharray:none"
         id="rect72-63"
         width="3.5686994"
         height="7.1940446"
         x="-576.77087"
         y="583.37048"
         transform="rotate(-179.97358)" />
    </g>
    <path
       d="m 183.38326,327.28854 q 9.05272,13.42748 5.17304,30.69142 -3.23316,14.3866 -14.87259,28.45344 -18.42882,21.73976 -47.20382,35.16724 -16.81239,7.67291 -31.038153,9.91076 -10.02272,1.27875 -17.782284,-1.59848 -4.203147,-1.59849 -6.143037,-3.83645 -2.263257,-2.87723 -6.143039,-4.79547 -11.315879,-5.43494 -11.639244,-19.50189 -0.322459,-8.31228 3.879782,-17.90341 9.052823,-19.18205 20.368702,-30.37157 13.579338,-13.74721 30.391623,-19.82152 4.84968,-1.5986 10.02272,-0.95832 4.20315,0.63988 8.08293,6.7138 1.29326,1.91812 -0.32246,4.47582 -2.26325,2.5576 -3.55641,3.83635 -8.08293,6.71379 -16.48913,18.22304 -10.992612,15.02607 -16.165654,24.93684 -4.526513,8.31228 -5.819673,15.66534 0,0.31944 -0.322459,1.91823 0,0 0.646933,0.9583 1.29316,0 5.173042,-1.27885 13.902401,-4.15608 28.128371,-13.10774 19.07544,-12.46847 32.33141,-30.37177 9.05283,-12.14863 10.99272,-25.89575 1.61662,-9.91086 -1.93989,-16.94429 -1.9399,-3.83656 -4.84978,-6.07441 -8.08283,-5.75458 -16.48912,-8.95166 -1.9399,-0.9583 -24.24849,-9.27129 -11.63935,-4.47593 -20.368804,-9.91087 -10.66945,-6.39405 -16.489023,-15.02596 -0.322459,-0.95832 -4.203047,-5.1152 -11.96271,-13.42748 -11.316081,-31.65052 0.322459,-6.7138 3.879883,-15.66555 12.609141,-32.60954 42.030772,-52.43107 17.45902,-11.82899 37.82782,-11.18962 10.02282,0.31944 18.75228,4.47583 7.75946,3.51681 10.99261,9.59103 3.87978,6.71389 6.14294,11.50925 2.58653,5.1153 1.61662,12.14883 -1.61662,11.18951 -5.4963,19.50169 -0.32246,0.63988 -2.58652,6.07442 -1.93989,5.11531 -3.23325,7.99264 0,0 -1.29316,1.59848 -2.26326,-0.95829 -2.26326,-3.19706 0.64693,-4.47583 0.96939,-7.35317 2.90989,-14.38659 2.26336,-24.617 -0.32246,-6.71379 -1.93999,-12.46836 -1.29326,-4.15619 -5.81958,-5.43494 -11.31608,-3.51682 -21.01553,0.63988 -6.4662,2.87723 -10.99251,6.07431 -31.361625,22.37913 -41.384344,58.50548 -2.263157,7.6728 -1.616526,15.98508 0.322458,4.15619 3.233051,6.07441 9.052829,5.75458 10.669349,6.7137 8.40629,3.83645 22.95543,9.27139 13.9024,5.43484 20.69207,8.95165 22.63206,11.18961 35.56466,34.52776 0.9694,2.23796 2.26316,4.15619 z M 98.351522,192.69381 q -6.466302,7.6729 -6.789567,11.50935 13.579135,-14.70642 14.549035,-15.66554 1.29336,-1.27875 17.13585,-15.02586 -5.17304,1.91822 -12.60944,7.6728 -7.4362,5.43494 -12.285878,11.50925 z M 71.83968,395.7049 q 5.819773,-12.46846 11.962712,-21.42022 0.969391,-1.27885 13.902601,-19.82143 -13.255972,11.18951 -22.308896,27.49432 -3.556417,6.39406 -3.556417,13.74733 z m 73.39249,-2.87745 q 8.40609,-4.15608 16.81229,-14.70633 8.40619,-10.55013 8.72956,-16.94419 -11.31608,15.34571 -12.28608,16.30473 -0.96939,1.27894 -13.25577,15.34579 z"
       style="font-style:normal;font-variant:normal;font-weight:normal;font-stretch:normal;font-size:40.7199px;line-height:1.25;font-family:Guttenbay;-inkscape-font-specification:Guttenbay;text-align:center;text-anchor:middle;fill:#ffffff;stroke:none;stroke-width:20.1537;stroke-miterlimit:4;stroke-dasharray:none;paint-order:stroke fill markers"
       id="path44" />
    <path
       d="m 254.72451,238.4112 q 0,0 -1.61653,0.63987 -2.26315,8.63202 -2.58653,9.2714 -3.23314,13.10783 -15.84239,54.66913 -8.72945,28.45353 -12.60923,46.35674 -2.90978,11.18972 -3.55642,16.9443 -1.61652,7.99254 0,13.74711 0.96939,3.19708 -0.32245,4.47583 -1.61664,1.59858 -4.84969,0 -0.64693,-0.31944 -1.93988,-0.95831 -0.9694,-0.31942 -1.61664,-0.31942 -6.14293,-2.87735 -7.75946,-9.59113 -1.29325,-5.75458 -0.96938,-10.86988 1.61652,-13.42759 2.26315,-17.90331 5.17305,-29.7323 16.81229,-68.09662 1.93989,-5.75457 5.17304,-16.30481 3.23325,-10.55015 3.87978,-13.10775 0,0 0.32246,-1.91811 -0.64693,-0.95832 -2.90989,-0.31944 -0.96939,0 -7.75946,1.91822 -6.78967,1.59849 -10.34609,2.23796 -2.26315,0.63989 -7.4362,0.95831 -3.55641,0.63988 -6.14303,-1.27885 -2.26316,-1.27885 -2.26316,-2.5576 -0.32246,-0.95831 -2.90989,-6.07431 0,0 -0.64693,-3.51662 6.14304,-5.75478 6.78957,-6.07441 0.32246,-0.63988 4.84967,-6.39405 2.58673,-0.63989 4.20316,0.31944 1.61652,0.63987 1.93989,1.91822 0.64693,0.95931 1.61653,3.19708 12.9326,-3.51682 13.90259,-3.51682 1.29317,-0.31944 14.54914,-3.51671 1.29325,-2.87734 1.61662,-2.87734 0.32246,-1.27886 1.61653,-4.47583 1.61652,-3.51671 2.26315,-5.43484 0.64693,-1.27876 1.61653,-3.51671 1.29336,-2.23796 1.29336,-2.55771 2.58652,-5.43493 9.05273,-4.47581 2.58651,2.87743 5.17314,5.43493 0.32245,2.5576 -0.9694,7.35326 -0.96938,4.79547 -0.96938,7.35307 2.26315,0 2.58651,0 22.95533,-1.27885 23.92532,-1.27885 4.52632,0 13.90251,0.95831 5.17295,0.63987 9.37598,3.51671 3.55652,2.23787 3.87988,6.39405 0,2.5577 -2.26325,2.5577 -1.93979,0.31944 -3.55651,0.31944 -7.4361,-0.63988 -19.39881,1.27885 -3.55652,0.63987 -31.36142,5.11519 z m -41.06088,104.54269 q -0.64693,0.63987 -0.96939,5.43494 -1.29326,1.27885 -0.32245,4.15619 0,-0.9583 0,-2.23797 0.32245,-1.27885 0.32245,-2.23786 0.96939,-0.9583 0.96939,-5.43504 0.9694,-1.27884 0.9694,-1.59848 4.52641,-19.50191 13.25586,-49.55383 0,-0.31944 0.64694,-4.47583 2.26316,-3.19698 2.90979,-9.59103 -0.32247,0.63988 -1.29317,2.87723 -0.64692,1.91824 -1.29336,3.51682 -0.32245,1.59838 0,3.19698 -0.96938,0.31944 -1.61652,3.19708 -8.40619,27.49433 -11.31608,41.24155 -2.26316,9.91067 -2.26316,11.50925 z m -2.58652,15.34571 v -2.5576 z"
       style="font-style:normal;font-variant:normal;font-weight:normal;font-stretch:normal;font-size:40.7199px;line-height:1.25;font-family:Guttenbay;-inkscape-font-specification:Guttenbay;text-align:center;text-anchor:middle;fill:#ffffff;stroke:none;stroke-width:20.1537;stroke-miterlimit:4;stroke-dasharray:none;paint-order:stroke fill markers"
       id="path46" />
    <path
       d="m 303.89864,297.55625 q -1.61652,5.75457 -2.26315,6.71369 -3.23315,-0.9583 -3.55652,-3.83645 -0.64693,-4.79547 -0.96939,-5.75458 0,-0.31944 -1.29326,-3.51672 -2.26326,0 -5.81968,2.87725 -4.84977,4.15618 -7.75946,9.27138 -5.17304,8.95166 -8.4063,15.66544 -6.78967,13.4276 -10.34607,24.61701 -1.61664,5.1152 -1.29327,7.03353 6.78967,-4.79568 13.90261,-12.78801 7.11292,-7.673 10.66944,-15.02606 0.64693,-0.95831 8.08272,-16.62466 4.84969,-0.63989 5.17305,-0.63989 4.20315,0 5.81967,3.51671 1.29337,2.87745 3.55652,6.07442 1.9399,2.55761 1.29317,6.39406 -0.9694,9.59113 -1.29317,15.98508 -0.64693,11.50936 2.26316,23.97772 0.32246,2.5576 0.32246,4.15618 0,1.27875 -1.29337,1.91813 -0.96938,0.31944 -1.93988,-0.31943 -1.29317,-0.95831 -1.9398,-1.91802 -5.4964,-5.75478 -7.11292,-11.50936 -0.32246,-0.63988 -2.90989,-8.63201 -0.9694,0 -2.58653,2.23796 -7.11283,9.27138 -18.42891,18.22304 -5.17304,4.47582 -9.37609,5.43493 -2.90989,0.63988 -6.4664,0.95832 -2.90969,0 -6.46621,-2.5575 -0.32245,-0.31944 -2.58651,-2.87724 -2.26316,-2.55771 -4.52641,-5.11531 -1.9398,-2.87733 -2.26316,-3.19707 -2.58653,-6.39406 -0.9694,-15.34571 1.61653,-8.95164 5.49642,-17.26392 6.78955,-14.06686 16.48891,-27.81408 4.52641,-6.71369 9.05282,-10.23051 6.14305,-4.79546 11.3161,-6.07431 3.23314,-0.63988 6.46619,-0.63988 4.84967,0.31944 7.75956,4.15609 0.9694,1.27886 2.90979,4.47593 2.58653,3.83635 1.29336,7.99254 z m -17.78228,43.79906 q -2.58652,2.55769 -8.4061,8.31237 -5.81967,5.75457 -9.05292,8.95155 3.23325,-1.59838 6.78977,-4.47583 3.87968,-3.19697 6.78957,-6.71368 2.90978,-3.51672 3.87968,-6.07441 z m -6.14294,-46.99614 q 0,0 0.64693,-1.27885 -2.26316,1.27885 -3.23305,3.51682 2.26316,-2.23797 2.58653,-2.23797 z"
       style="font-style:normal;font-variant:normal;font-weight:normal;font-stretch:normal;font-size:40.7199px;line-height:1.25;font-family:Guttenbay;-inkscape-font-specification:Guttenbay;text-align:center;text-anchor:middle;fill:#ffffff;stroke:none;stroke-width:20.1537;stroke-miterlimit:4;stroke-dasharray:none;paint-order:stroke fill markers"
       id="path48" />
    <path
       d="m 327.89974,290.20309 q 0,-0.31944 0.9694,-5.11531 3.5564,-0.9583 4.20313,-0.63988 0.9694,0.31944 2.90969,2.5576 2.90979,3.51682 2.90979,7.67301 0,6.39385 0,7.35307 -0.32245,2.5577 -0.64693,5.43493 0,2.5575 -0.32247,5.75458 -0.32245,3.19697 -0.32245,5.1153 0,0 -0.32246,3.51661 0.96939,0.63988 1.9399,-0.95831 0.96938,-1.59848 2.26314,-3.83635 1.29336,-2.5577 2.58653,-4.79566 1.29336,-2.23787 2.26335,-3.83635 4.52632,-7.6728 10.02272,-13.74711 0.9694,-1.27885 4.84968,-4.79557 2.58652,-2.5576 7.4362,-2.5576 3.55641,0 4.84977,2.5576 0.32246,0.63988 1.29317,1.91822 5.17304,6.39406 3.55652,13.74723 0,0.31943 -0.64694,5.1152 1.29316,-0.63988 3.55632,-4.1562 8.40629,-12.46836 17.78229,-19.82153 5.17304,-4.15608 10.02281,-4.47583 5.17304,-0.31944 7.4362,3.19708 4.52651,6.7137 4.52651,7.03333 1.61653,2.87744 1.29327,7.673 -0.64693,10.55015 -4.20316,26.21549 -0.96938,4.47593 -3.55652,14.70633 -2.58651,10.23049 -4.20303,17.90331 -1.61663,7.67299 -2.90979,14.70622 -2.90989,18.54288 -3.23325,20.78075 -1.29316,10.23051 0.64693,16.62455 5.4964,6.39405 5.81968,7.03334 1.61652,2.23806 -1.29327,3.19706 -4.52641,2.23807 -8.72946,-1.59848 -7.4362,-6.71368 -9.69936,-10.55015 -2.26326,-4.15618 -3.55651,-8.31228 -5.17304,-15.98507 -1.61652,-36.12624 2.58652,-13.42759 9.05272,-31.97036 2.26326,-7.03343 8.08282,-24.61699 0,0 0.64695,-2.87735 -0.9694,-0.31942 -2.26327,0.95831 -8.08282,8.95165 -14.54913,20.78064 -2.26326,3.83656 -6.46631,11.829 -3.87968,7.67289 -5.81966,11.18961 -1.61652,3.51662 -4.84978,8.63191 -1.93979,2.87735 -5.49631,2.55762 -1.61652,0 -1.9398,-0.63989 -4.20303,-3.83645 -6.14293,-5.75478 -0.96939,-1.59839 -0.32246,-5.75457 1.29327,-7.99264 2.26326,-14.06686 0.9694,-4.15618 2.58653,-11.82909 1.61652,-7.6728 1.93988,-9.2714 0,0 0,-1.59848 -0.64693,-0.31944 -1.61652,1.27885 -5.49641,8.63191 -8.40629,13.42759 -1.29317,1.91822 -4.20306,7.03341 -2.90988,5.1152 -4.52651,7.67282 -1.29316,1.91821 -5.4962,7.6728 -1.94,2.87743 -4.84979,3.83654 -3.87978,0.95831 -6.46629,-1.59858 -0.32247,-0.31944 -0.9694,-0.95831 -0.64693,-0.63988 -1.29315,-0.95831 -0.32247,-0.63988 -0.9694,-1.27885 -0.32245,-0.63988 -0.96938,-0.9583 -2.58653,-2.5576 -2.58653,-6.07431 0,-3.83635 0.32245,-6.39407 0.9694,-6.0742 2.90989,-17.26392 1.9399,-11.18952 2.58653,-15.02587 0.32246,-2.55769 0.96938,-6.71389 0.64695,-4.47583 0.9694,-5.75458 z"
       style="font-style:normal;font-variant:normal;font-weight:normal;font-stretch:normal;font-size:40.7199px;line-height:1.25;font-family:Guttenbay;-inkscape-font-specification:Guttenbay;text-align:center;text-anchor:middle;fill:#ffffff;stroke:none;stroke-width:20.1537;stroke-miterlimit:4;stroke-dasharray:none;paint-order:stroke fill markers"
       id="path50" />
    <path
       d="m 448.89004,352.22518 q 2.58653,-2.87724 7.4363,-2.5575 1.61654,2.87734 1.61654,4.15609 0.32245,1.27885 0,6.07441 1.93988,-0.63988 1.93988,-0.63988 14.8725,-9.59112 21.98542,-25.5762 7.11285,-16.30483 5.81968,-31.33079 0,0 -0.64693,-3.51681 -2.58653,1.27894 -2.90979,1.27894 -6.14293,3.83635 -12.28597,11.50917 -13.57934,16.94429 -26.83511,42.5204 -1.29326,1.91821 -3.55652,12.14872 -1.93978,10.2304 -8.72945,45.0779 -3.87979,20.14138 -5.81967,36.44619 -0.32246,3.51671 0,8.95166 0,6.71368 3.23314,11.18951 0,0 1.29327,2.5576 -0.64693,3.51682 -4.20306,2.87734 -12.9326,-2.23786 -17.13565,-11.82889 -2.58652,-6.71379 -2.58652,-13.10784 -0.32245,-11.18963 0.32246,-20.78064 0.64693,-6.7138 2.58653,-20.78066 1.93988,-16.30481 7.11293,-37.08545 10.02271,-42.20067 12.28587,-51.15243 0.9694,-3.83635 7.75957,-24.93672 0,-0.31944 1.61662,-4.1561 2.26316,-5.1153 7.4362,-5.1153 5.4964,3.51672 6.14304,5.1153 0.64693,1.27875 -0.32246,7.03343 -0.32245,3.19698 -0.9694,9.91067 -0.32245,0.31943 -0.32245,5.11531 2.26325,-2.87735 2.26325,-3.19698 8.72947,-12.46837 9.05283,-12.46837 4.20305,-5.75478 9.69945,-9.59113 5.17304,-3.51681 11.63925,-3.51681 7.11283,0 10.99271,5.43503 11.63935,15.34571 8.72946,32.92939 -4.52641,25.5761 -21.01533,42.52039 -6.46641,6.71359 -13.90259,10.55004 -4.52642,2.5576 -8.40631,2.87744 -7.43599,0.9583 -11.31588,-4.47583 -0.96938,-1.27895 -3.23315,-3.51681 -3.87978,-4.15608 -1.29326,-9.59103 1.61652,-3.19697 4.52641,-7.35316 z m -21.98543,27.17469 q -2.90978,9.2715 -5.81957,30.05214 -3.23315,20.78064 -2.58652,26.85486 1.9399,-14.06675 1.9399,-15.02587 0.96938,-6.07441 2.90967,-17.58377 2.26336,-11.50915 2.90989,-15.02586 1.29336,-6.39405 0.64693,-9.2715 z m 51.40717,-23.97762 q -0.64694,0.63989 -2.90989,2.87735 -1.9399,1.91821 -3.23315,3.19708 0,0 0.32246,0.31942 0.32245,0 0.32245,0 4.52642,-4.15608 5.17305,-5.1153 0.96938,-0.95831 0.32245,-1.27875 z m -8.08293,-54.02965 q 1.61652,-1.59849 4.20304,-3.83635 0,-0.31943 -0.32246,-0.63987 -0.32246,-0.31944 -0.32246,-0.31944 -3.23314,2.87733 -3.5563,4.79557 z m -52.70022,138.11135 v 4.47583 q 0,0 0.32246,0 v -4.47583 z M 465.0558,306.82754 q 1.61653,-1.27885 1.61653,-1.27885 0.32245,-0.31944 1.29326,-1.59839 -1.61662,0 -2.90979,2.87724 z"
       style="font-style:normal;font-variant:normal;font-weight:normal;font-stretch:normal;font-size:40.7199px;line-height:1.25;font-family:Guttenbay;-inkscape-font-specification:Guttenbay;text-align:center;text-anchor:middle;fill:#ffffff;stroke:none;stroke-width:20.1537;stroke-miterlimit:4;stroke-dasharray:none;paint-order:stroke fill markers"
       id="path52" />
    <path
       d="m 566.59168,297.55625 q -1.61663,5.75457 -2.26316,6.71369 -3.23315,-0.9583 -3.55652,-3.83645 -0.64693,-4.79547 -0.96938,-5.75458 0,-0.31944 -1.29317,-3.51672 -2.26335,0 -5.81968,2.87725 -4.84967,4.15618 -7.75955,9.27138 -5.17305,8.95166 -8.40619,15.66544 -6.78967,13.4276 -10.34609,24.61701 -1.61663,5.1152 -1.29327,7.03353 6.78957,-4.79568 13.90251,-12.78801 7.11303,-7.673 10.66945,-15.02606 0.64693,-0.95831 8.08283,-16.62466 4.84967,-0.63989 5.17304,-0.63989 4.20304,0 5.81967,3.51671 1.29326,2.87745 3.55642,6.07442 1.93989,2.55761 1.29336,6.39406 -0.9694,9.59113 -1.29336,15.98508 -0.64693,11.50936 2.26325,23.97772 0.32246,2.5576 0.32246,4.15618 0,1.27875 -1.29325,1.91813 -0.9694,0.31944 -1.9398,-0.31943 -1.29336,-0.95831 -1.94,-1.91802 -5.4963,-5.75478 -7.11292,-11.50936 -0.32246,-0.63988 -2.90989,-8.63201 -0.9694,0 -2.58652,2.23796 -7.11284,9.27138 -18.42882,18.22304 -5.17304,4.47582 -9.37608,5.43493 -2.90989,0.63988 -6.46641,0.95832 -2.90978,0 -6.46621,-2.5575 -0.32245,-0.31944 -2.58651,-2.87724 -2.26316,-2.55771 -4.52631,-5.11531 -1.94,-2.87733 -2.26336,-3.19707 -2.58653,-6.39406 -0.9694,-15.34571 1.61664,-8.95164 5.49642,-17.26392 6.78967,-14.06686 16.48902,-27.81408 4.52642,-6.71369 9.05283,-10.23051 6.14303,-4.79546 11.31608,-6.07431 3.23304,-0.63988 6.46619,-0.63988 4.84969,0.31944 7.75957,4.15609 0.96939,1.27886 2.90989,4.47593 2.58652,3.83635 1.29315,7.99254 z m -17.78219,43.79906 q -2.58652,2.55769 -8.40629,8.31237 -5.81968,5.75457 -9.05273,8.95155 3.23305,-1.59838 6.78957,-4.47583 3.87968,-3.19697 6.78957,-6.71368 2.90989,-3.51672 3.87988,-6.07441 z m -6.14304,-46.99614 q 0,0 0.64693,-1.27885 -2.26316,1.27885 -3.23315,3.51682 2.26326,-2.23797 2.58653,-2.23797 z"
       style="font-style:normal;font-variant:normal;font-weight:normal;font-stretch:normal;font-size:40.7199px;line-height:1.25;font-family:Guttenbay;-inkscape-font-specification:Guttenbay;text-align:center;text-anchor:middle;fill:#ffffff;stroke:none;stroke-width:20.1537;stroke-miterlimit:4;stroke-dasharray:none;paint-order:stroke fill markers"
       id="path54" />
    <path
       d="m 642.64667,384.83482 q 0,0 0,0.9583 -1.29337,1.59859 -3.88029,0.63989 -2.26285,-0.95831 -3.55631,-2.23797 -9.05313,-8.63191 -10.66966,-19.18206 0,-0.31943 -1.29266,-6.71379 -2.58682,1.59859 -2.58682,1.91823 -8.08293,6.07441 -8.08293,6.07441 -2.58671,1.59839 -5.81997,2.5575 -10.34578,2.87734 -15.84179,-6.39404 -2.26366,-3.51672 -2.90998,-4.47584 -7.11294,-6.71369 -6.78957,-19.18205 0.32245,-8.63192 5.4961,-19.82163 6.14314,-13.74713 15.19557,-25.25647 6.46629,-7.99245 14.54912,-12.46827 9.37639,-4.79556 18.75259,-3.19708 0.97039,-2.23786 0.97039,-2.23786 7.11253,-23.65809 20.69156,-61.70256 2.90999,-7.6728 5.17275,-13.42758 0,-0.31943 2.26377,-5.43494 7.43659,-0.63988 10.34577,2.23797 -0.32549,1.27874 -0.32549,3.19697 0.9704,0.31944 1.29347,0.31944 0.32548,0.31944 0.32548,0.31944 2.90999,7.6728 1.61663,11.50915 -0.9704,3.19708 -1.93969,6.71389 -0.9704,3.19697 -1.9398,6.07422 -0.9704,2.87743 -2.26365,6.39404 -0.96939,3.51692 -1.9397,6.39415 -0.64289,2.87735 -1.93978,6.39406 -0.9704,3.5167 -1.93968,6.39405 -1.29347,4.79547 -7.11345,22.69887 -5.81917,17.58357 -8.72916,27.17469 -7.43669,24.617 -10.66974,45.71729 -1.61664,10.86987 -1.61664,18.86251 0,10.86978 4.52663,17.26384 0.32547,0.63987 0.64289,1.91831 z m -39.12099,-39.0037 q 0,0.31944 -0.32548,5.11531 3.55712,-1.59849 3.55712,-1.59849 6.46631,-3.19697 13.9021,-9.59102 3.23315,-2.55771 3.55621,-7.03343 0.9704,-7.67291 1.9406,-13.42758 0.64291,-3.19708 1.29266,-7.03343 0.9704,-3.83645 1.61662,-7.67281 0.9704,-4.15618 1.61653,-7.03342 0,0 0,-3.83644 -5.49601,4.47581 -9.37548,10.55013 -13.25578,20.78064 -17.78239,41.56118 z m 19.39891,-56.90699 q -5.49681,1.5986 -7.11333,6.39406 3.23305,-2.87725 3.55621,-3.19698 0.32549,-0.31944 0.9704,-0.95831 0.64291,-0.63988 1.29346,-1.27885 0.9694,-0.63988 1.29326,-0.9583 z m -5.49681,62.98142 q 2.90999,-0.63989 4.20345,-3.51672 -1.61672,1.27885 -4.20345,3.51672 z"
       style="font-style:normal;font-variant:normal;font-weight:normal;font-stretch:normal;font-size:40.7199px;line-height:1.25;font-family:Guttenbay;-inkscape-font-specification:Guttenbay;text-align:center;text-anchor:middle;fill:#ffffff;stroke:none;stroke-width:20.1537;stroke-miterlimit:4;stroke-dasharray:none;paint-order:stroke fill markers"
       id="path56" />
    <path
       d="m 681.62637,282.21045 q 4.52571,-1.91824 7.11263,1.59858 0,0 2.26275,2.5575 -0.96939,3.83656 -0.96939,3.83656 -1.61662,5.1151 -4.5266,14.06685 -2.58673,8.95166 -4.84969,16.62456 -2.26296,7.35316 -4.20345,13.74721 -1.61652,4.79536 -3.23314,14.06676 -0.64291,1.91833 -0.64291,6.71378 -0.32548,7.35318 3.88019,10.86999 0.32547,0 1.93978,2.23776 -3.23315,3.19708 -7.75976,0.63987 -13.25577,-7.35316 -14.22608,-22.05949 -0.96938,-10.55015 1.29347,-20.14116 4.20346,-18.22316 14.22607,-35.16745 1.93979,-3.19697 5.17284,-6.71368 1.61663,-1.5985 4.52662,-2.87735 z m -0.9704,12.78809 q 0.32549,-0.9583 0.9704,-2.23785 0.96939,-1.5985 1.29266,-2.5576 0,0 -0.32549,0 -0.32547,0 -0.32547,-0.31944 -0.32549,0.9583 -1.29256,2.23797 -0.65096,1.27875 -0.9704,2.23785 0,0 0,0.31944 0.32549,0 0.64291,0.31943 z m 21.3387,-57.86609 q 3.87948,3.51681 0.9704,9.59113 -1.94059,4.47581 -3.55641,7.67279 -4.20345,8.95165 -3.88019,14.3866 -3.23326,1.59858 -5.17294,0 -6.78947,-6.07432 -6.14314,-14.70623 0.32548,-5.11531 1.29337,-8.31228 0.96938,-4.47583 4.5267,-7.99255 2.58602,-2.55769 4.52571,-3.19706 1.9405,-0.63989 5.81997,0.31942 1.29346,1.91823 1.61653,2.23787 z"
       style="font-style:normal;font-variant:normal;font-weight:normal;font-stretch:normal;font-size:40.7199px;line-height:1.25;font-family:Guttenbay;-inkscape-font-specification:Guttenbay;text-align:center;text-anchor:middle;fill:#ffffff;stroke:none;stroke-width:20.1537;stroke-miterlimit:4;stroke-dasharray:none;paint-order:stroke fill markers"
       id="path58" />
    <path
       d="m 747.82492,297.55625 q -1.61725,5.75457 -2.26367,6.71369 -3.23305,-0.9583 -3.55632,-3.83645 -0.64289,-4.79547 -0.9704,-5.75458 0,-0.31944 -1.29255,-3.51672 -2.26376,0 -5.81998,2.87725 -4.84987,4.15618 -7.75986,9.27138 -5.17274,8.95166 -8.40599,15.66544 -6.78947,13.4276 -10.34569,24.61701 -1.61663,5.1152 -1.29346,7.03353 6.78947,-4.79568 13.9021,-12.78801 7.11344,-7.673 10.66965,-15.02606 0.64291,-0.95831 8.08293,-16.62466 4.84968,-0.63989 5.17284,-0.63989 4.20346,0 5.82008,3.51671 1.29336,2.87745 3.55621,6.07442 1.9398,2.55761 1.29346,6.39406 -0.9704,9.59113 -1.29346,15.98508 -0.64289,11.50936 2.26296,23.97772 0.32547,2.5576 0.32547,4.15618 0,1.27875 -1.29254,1.91813 -0.9704,0.31944 -1.9405,-0.31943 -1.29266,-0.95831 -1.93969,-1.91802 -5.49611,-5.75478 -7.11273,-11.50936 -0.32549,-0.63988 -2.90989,-8.63201 -0.9704,0 -2.58692,2.23796 -7.11253,9.27138 -18.42861,18.22304 -5.17294,4.47582 -9.37639,5.43493 -2.90999,0.63988 -6.46621,0.95832 -2.90999,0 -6.4663,-2.5575 -0.32548,-0.31944 -2.58612,-2.87724 -2.26356,-2.55771 -4.52651,-5.11531 -1.93979,-2.87733 -2.26376,-3.19707 -2.58602,-6.39406 -0.9694,-15.34571 1.61653,-8.95164 5.49601,-17.26392 6.78937,-14.06686 16.48892,-27.81408 4.52651,-6.71369 9.05324,-10.23051 6.14303,-4.79546 11.31598,-6.07431 3.23314,-0.63988 6.46619,-0.63988 4.84988,0.31944 7.75977,4.15609 0.96939,1.27886 2.90928,4.47593 2.58683,3.83635 1.29337,7.99254 z m -17.78229,43.79906 q -2.58683,2.55769 -8.4068,8.31237 -5.81917,5.75457 -9.05233,8.95155 3.23316,-1.59838 6.78937,-4.47583 3.87949,-3.19697 6.78947,-6.71368 2.90999,-3.51672 3.88029,-6.07441 z m -6.14325,-46.99614 q 0,0 0.64291,-1.27885 -2.26366,1.27885 -3.23316,3.51682 2.26296,-2.23797 2.58602,-2.23797 z"
       style="font-style:normal;font-variant:normal;font-weight:normal;font-stretch:normal;font-size:40.7199px;line-height:1.25;font-family:Guttenbay;-inkscape-font-specification:Guttenbay;text-align:center;text-anchor:middle;fill:#ffffff;stroke:none;stroke-width:20.1537;stroke-miterlimit:4;stroke-dasharray:none;paint-order:stroke fill markers"
       id="path60" />
    <text
       xml:space="preserve"
       style="font-style:normal;font-weight:normal;font-size:61.3038px;line-height:1.25;font-family:sans-serif;fill:#ffffff;fill-opacity:1;stroke:none;stroke-width:20.1537;stroke-miterlimit:4;stroke-dasharray:none;paint-order:stroke fill markers"
       x="345.64807"
       y="258.07962"
       id="text444964"
       transform="scale(1.0279369,0.97282235)"><tspan
         sodipodi:role="line"
         id="tspan444962"
         style="font-style:normal;font-variant:normal;font-weight:normal;font-stretch:normal;font-family:Seshat;-inkscape-font-specification:Seshat;fill:#ffffff;stroke:none;stroke-width:20.1537;stroke-miterlimit:4;stroke-dasharray:none;paint-order:stroke fill markers"
         x="345.64807"
         y="258.07962">Mazes of</tspan></text>
    <path
       id="path1"
       style="-inkscape-font-specification:'Jost* Medium';fill:url(#linearGradient7);paint-order:stroke fill markers"
       d="M 987.14233 104.79102 L 987.14233 105.09436 C 981.43759 105.08352 975.62757 105.59472 969.71084 106.68548 L 897.75399 119.93376 L 898.15293 186.93019 C 897.13969 182.22063 895.98564 177.61627 894.55108 173.22457 L 894.55108 173.2225 C 889.96231 158.64244 883.32134 147.33067 874.57246 139.47262 C 868.05317 133.61935 860.4205 130.57521 852.06479 130.35535 L 852.06427 130.35535 C 851.0568 130.32884 850.02761 130.3911 848.99986 130.44682 L 848.99986 130.39462 L 809.95883 130.39462 L 809.95883 130.82044 C 808.71905 130.9422 807.47171 131.09641 806.20505 131.33617 C 795.41109 133.38262 786.0595 139.67372 778.29306 149.75985 C 770.64182 159.34797 764.79044 171.72539 760.60732 186.82787 L 760.60732 186.83201 L 760.60525 186.83407 C 756.58157 201.51507 754.6069 217.88906 754.61699 236.05898 L 754.61699 238.52187 L 764.85512 237.6165 L 792.95522 238.41387 L 794.39492 238.28778 L 794.41973 238.56632 L 821.62323 236.16233 L 821.6191 233.85188 C 821.59924 223.17449 823.15672 214.03387 826.09221 206.20705 C 827.57787 212.52448 828.44864 219.87103 828.47295 228.51008 C 828.52255 243.58001 825.57846 256.71712 819.75048 267.90044 C 814.06041 278.51133 806.74715 283.49096 797.25263 283.79508 L 795.06517 283.86536 L 795.16438 332.07999 L 797.38337 332.11151 C 808.13105 332.26603 816.60645 337.12283 823.36938 347.3943 L 823.37558 347.40463 L 823.38178 347.41239 C 830.38889 357.82053 834.09723 372.60139 834.15684 391.77609 C 834.21549 408.52231 831.72041 421.32538 827.04513 430.17013 C 826.28695 428.98708 825.54277 427.73098 824.81839 426.37139 L 824.81632 426.36932 C 824.81603 426.36879 824.8166 426.36826 824.81632 426.36726 C 819.48972 416.32826 816.74601 403.36156 816.73619 387.30091 L 816.73413 384.96462 L 815.64169 384.88297 L 815.66597 383.63653 L 786.30653 381.60927 L 750.27513 382.79679 L 750.26997 383.04742 L 748.10162 382.88516 L 748.10162 385.31498 C 748.10162 403.90961 750.22273 421.21674 754.51777 437.30716 L 754.51984 437.31698 L 754.5219 437.32524 C 759.00996 453.61029 765.39635 467.33192 773.8029 478.44987 C 782.42026 489.84828 793.143 496.95473 805.80715 499.31319 C 805.80778 499.31331 805.80821 499.31307 805.80921 499.31319 C 808.29525 499.77591 810.72917 500.00042 813.13073 500.08937 L 813.13073 500.43767 L 853.07609 500.43767 L 853.07609 500.36687 C 861.70313 500.2027 869.73036 497.59886 876.85966 492.44126 L 876.88291 492.42369 L 876.90823 492.40612 C 886.72008 484.94233 894.31857 473.45571 899.76833 458.19839 L 900.07788 510.16783 L 973.32612 523.35565 C 979.13957 524.40039 984.8369 524.87529 990.43153 524.88889 L 990.43153 525.20877 L 1024.3282 525.20877 L 1024.3282 525.02377 C 1044.2306 525.808 1062.7727 520.28304 1079.3848 507.98811 L 1079.3987 507.9783 L 1079.4127 507.96848 C 1100.4188 491.98723 1116.9472 467.41354 1128.7564 434.44273 L 1128.7564 434.43705 C 1141.0467 400.44075 1146.8872 359.73227 1146.2391 312.85274 L 1146.2391 312.85067 C 1145.578 266.17223 1138.6439 226.14069 1125.5478 193.20836 L 1125.5375 193.18666 C 1113.0059 160.5702 1096.0957 136.72563 1075.0279 121.73779 L 1075.0279 121.73572 C 1059.7311 110.56542 1042.989 104.97917 1025.1627 104.80394 L 1025.1643 104.80446 C 1024.6614 104.79951 1024.145 104.86227 1023.6404 104.86595 L 1023.6404 104.79102 L 987.14233 104.79102 z M 1025.1302 109.81707 L 1025.1317 109.81707 C 1041.9326 109.94957 1057.5254 115.19232 1072.0601 125.80679 L 1072.0725 125.81661 L 1072.0865 125.82643 C 1092.1504 140.09083 1108.5581 163.0242 1120.8463 195.016 L 1120.8561 195.02996 L 1120.866 195.04339 C 1133.6765 227.24465 1140.555 266.6911 1141.2099 312.92457 C 1141.8514 359.34676 1136.054 399.4645 1124.0265 432.73121 L 1124.0265 432.73483 L 1124.0265 432.73896 C 1112.4555 465.04741 1096.4218 488.69945 1076.3896 503.94598 C 1059.2816 516.60481 1040.4522 521.71945 1019.7414 519.76207 C 1027.4374 516.93148 1034.8507 512.99635 1041.9023 507.77727 L 1041.9142 507.76746 L 1041.9261 507.75919 C 1062.8816 491.81642 1079.3853 467.28981 1091.182 434.35333 L 1091.182 434.34713 C 1103.4585 400.38901 1109.2968 359.7124 1108.6491 312.85687 L 1108.6491 312.85481 C 1107.9882 266.19848 1101.0588 226.19648 1087.977 193.3019 L 1087.977 193.29208 C 1075.4576 160.70241 1058.5712 136.9018 1037.5532 121.95018 L 1037.5434 121.94656 C 1030.6264 116.89599 1023.4024 113.0509 1015.9308 110.27441 C 1019.0345 109.96763 1022.1056 109.7938 1025.1302 109.81707 z M 851.94438 135.34936 C 859.15592 135.48344 865.46503 138.06761 871.20677 143.22278 C 879.10833 150.3206 885.34958 160.77235 889.74414 174.7361 L 889.74827 174.75006 L 889.75396 174.76349 C 894.36655 188.87383 896.75343 204.83238 896.82846 222.55489 C 896.91786 240.94917 894.04797 257.20198 888.34784 271.19327 L 888.34164 271.20515 L 888.33802 271.21704 C 882.83931 285.11232 875.48147 295.87288 866.41585 303.64865 L 865.73992 304.22846 L 837.20833 304.22846 L 837.2042 302.32832 C 844.62355 294.58077 850.75729 284.83536 855.44959 272.9792 C 861.42117 258.31418 864.36983 241.43173 864.27799 222.53422 C 864.20119 204.39897 861.75703 187.94557 856.96733 173.28968 C 852.38886 158.7481 845.77291 147.48652 837.07087 139.67054 L 837.07087 139.66899 C 835.21911 138.00642 833.25634 136.6368 831.23557 135.43153 L 844.30712 135.43153 L 844.41978 136.02736 C 847.0366 135.53205 849.54053 135.30467 851.94438 135.34936 z M 971.69624 175.59342 L 971.70193 176.34169 L 965.23049 176.34169 L 969.97645 175.73708 C 970.55656 175.66338 971.12043 175.65103 971.69624 175.59342 z M 993.98274 177.69923 C 999.80891 179.52431 1005.4066 182.34948 1010.7869 186.2677 L 1010.7972 186.27545 L 1010.807 186.28165 C 1023.6797 195.45375 1034.3277 210.40504 1042.4557 231.39311 C 1050.6834 252.6404 1055.1115 279.9499 1055.5144 313.08063 C 1055.917 346.29988 1052.141 373.83527 1044.3616 395.38103 L 1044.3616 395.3831 C 1036.6704 416.74575 1026.2707 432.02575 1013.4632 441.46349 L 1013.4534 441.47124 L 1013.4431 441.47951 C 1007.8613 445.68659 1002.006 448.65935 995.88081 450.54976 L 978.74594 448.46152 L 976.76777 179.89135 L 993.98274 177.69923 z M 944.30463 179.00768 L 971.72157 179.00768 L 973.71369 449.3612 L 946.61871 449.3612 L 941.8283 448.77778 L 940.22323 179.52754 L 944.30463 179.00768 z M 809.71957 185.29205 C 812.04123 185.32684 814.05341 185.94254 815.90834 187.12915 C 818.38158 188.71128 820.61959 191.41545 822.51207 195.44957 L 822.51982 195.46507 L 822.52757 195.48057 C 823.00718 196.46371 823.37453 197.6448 823.7983 198.72689 C 819.22756 207.87772 816.9227 218.84606 816.68348 231.53936 L 801.19761 232.90878 L 784.08806 232.50984 C 784.22313 219.76811 786.49808 209.09558 790.91968 200.43944 L 790.92588 200.42808 L 790.93157 200.41412 C 795.59617 190.99975 800.99199 186.32247 807.28923 185.45121 C 808.13757 185.33342 808.94568 185.28045 809.71957 185.29205 z M 898.55962 255.18752 L 899.08311 343.08604 C 898.42106 341.39147 897.74943 339.70927 897.01398 338.11321 C 890.54546 323.41589 882.10299 312.54984 871.87908 305.31831 C 880.61243 297.13203 887.73404 286.43283 893.02198 273.07015 C 895.31707 267.43294 897.15708 261.46416 898.55962 255.18752 z M 837.21401 306.89445 L 865.43916 306.89445 L 866.71867 307.69543 C 877.07642 314.18706 885.69762 324.90011 892.41013 340.15805 L 892.41995 340.17769 L 892.42821 340.19939 C 895.23493 346.28557 897.47563 353.2712 899.19008 361.056 L 899.65775 439.60883 C 898.48435 445.3842 897.04058 450.82077 895.27559 455.84349 L 895.27559 455.84556 L 895.27352 455.84763 C 890.03898 470.79643 882.83461 481.55525 873.87741 488.37691 C 867.43175 493.03182 860.41107 495.34023 852.63736 495.40025 L 851.83689 495.40025 C 849.30756 495.36952 846.70365 495.11921 844.00791 494.61735 L 843.93557 495.40025 L 843.54696 495.40025 L 843.54696 494.57446 L 843.471 495.40025 L 834.18371 495.40025 C 835.95581 494.46554 837.69917 493.44333 839.37719 492.22939 L 839.40096 492.21388 L 839.42215 492.19631 C 849.33222 484.6578 856.99914 473.00331 862.4533 457.42841 C 867.98158 441.69632 870.66636 422.70818 870.56495 400.60449 C 870.45014 374.9357 866.76858 354.09893 859.43798 338.2021 C 853.59128 324.92392 846.13001 314.81165 837.21556 307.67424 L 837.21401 306.89445 z M 803.51323 389.02793 L 811.80264 389.64857 C 812.07581 405.20147 814.82295 418.2818 820.36905 428.73249 L 820.36905 428.73455 L 820.37111 428.73662 C 821.56929 430.98588 822.86681 433.00385 824.22049 434.88302 C 819.5146 441.5 813.98844 443.96854 806.88718 443.02981 C 799.17558 442.00455 792.72704 436.75218 787.26202 426.4949 L 787.25996 426.49283 C 787.25967 426.4923 787.26024 426.49176 787.25996 426.49076 C 782.19235 416.93986 779.54478 404.67421 779.25941 389.75192 L 803.51323 389.02793 z M 968.49902 452.02719 L 973.73333 452.02719 L 973.73746 452.607 C 973.29525 452.56239 972.86459 452.55865 972.41971 452.50468 L 972.41765 452.50468 L 968.49902 452.02719 z " />
  </g>
</svg>
